<?xml version="1.0"?>
<svg width="578" height="292" xmlns="http://www.w3.org/2000/svg" xmlns:svg="http://www.w3.org/2000/svg">
 <mask id="path-6-inside-1_0_1">
  <path d="m312.36,135.57l-1.55,0l0,-0.26c0,-0.61 -0.24,-1.2 -0.67,-1.63c-0.44,-0.44 -1.03,-0.68 -1.64,-0.68c-0.61,0 -1.2,0.24 -1.64,0.68c-0.43,0.43 -0.67,1.02 -0.67,1.63l0,0.26l-1.55,0c-0.17,0 -0.33,0.07 -0.45,0.19c-0.12,0.12 -0.19,0.28 -0.19,0.45l0,4.38c0,0.37 0.15,0.73 0.41,1c0.27,0.26 0.63,0.41 1,0.41l6.18,0c0.37,0 0.73,-0.15 1,-0.41c0.26,-0.27 0.41,-0.63 0.41,-1l0,-4.38c0,-0.17 -0.07,-0.33 -0.19,-0.45c-0.12,-0.12 -0.28,-0.19 -0.45,-0.19zm-5.4,-0.26c0,-0.4 0.16,-0.8 0.45,-1.09c0.29,-0.29 0.68,-0.45 1.09,-0.45c0.41,0 0.8,0.16 1.09,0.45c0.29,0.29 0.45,0.69 0.45,1.09l0,0.26l-3.08,0l0,-0.26zm5.27,5.28c0,0.17 -0.07,0.33 -0.19,0.45c-0.12,0.12 -0.28,0.19 -0.45,0.19l-6.18,0c-0.17,0 -0.33,-0.07 -0.45,-0.19c-0.12,-0.12 -0.19,-0.28 -0.19,-0.45l0,-4.25l1.42,0l0,1.16c0,0.1 0.04,0.2 0.11,0.27c0.07,0.07 0.17,0.12 0.27,0.12c0.1,0 0.2,-0.05 0.27,-0.12c0.08,-0.07 0.12,-0.17 0.12,-0.27l0,-1.16l3.08,0l0,1.16c0,0.1 0.04,0.2 0.12,0.27c0.07,0.07 0.17,0.12 0.27,0.12c0.1,0 0.2,-0.05 0.27,-0.12c0.07,-0.07 0.11,-0.17 0.11,-0.27l0,-1.16l1.42,0l0,4.25z" id="svg_1"/>
 </mask>
 <g class="layer">
  <title>Layer 1</title>
  <rect fill="#1E1E1E" height="51" id="svg_2" width="141" x="199" y="112"/>
  <rect fill="white" height="42" id="svg_3" transform="matrix(1 0 0 1 0 0)" width="118" x="210" y="115"/>
  <rect fill="#503CEB" height="60.91" id="svg_4" width="148" x="196.32" y="106"/>
  <path d="m218.82,125.54l96,0l0,18.98l-96,0l0,-18.98z" fill="#503CEB" id="svg_5" stroke="white"/>
  <path d="m266.89,125.61l50.56,0l0,18.84l-50.56,0l0,-18.84z" fill="white" id="svg_6" stroke="white" stroke-width="1.14"/>
  <path d="m222.72,130.62c0,-0.51 0.15,-0.9 0.46,-1.18c0.32,-0.29 0.76,-0.44 1.32,-0.44l7.76,11.8l0.14,-0.12l-0.58,-0.96l0,-10.72c0.61,0 1.07,0.13 1.38,0.4c0.32,0.27 0.48,0.65 0.48,1.16l0,11.32c0,0.43 -0.16,0.78 -0.46,1.06c-0.3,0.28 -0.68,0.42 -1.14,0.42l-7.94,-12.06l-0.14,0.12l0.58,0.96l0,9.42c0,0.51 -0.16,0.89 -0.48,1.16c-0.31,0.27 -0.77,0.4 -1.38,0.4l0,-12.74zm17.79,12.74c-0.82,0 -1.54,-0.15 -2.18,-0.46c-0.64,-0.32 -1.14,-0.75 -1.5,-1.3c-0.36,-0.56 -0.54,-1.19 -0.54,-1.88l0,-2.96c0,-0.71 0.18,-1.35 0.56,-1.92c0.38,-0.57 0.9,-1.02 1.54,-1.34c0.65,-0.33 1.36,-0.5 2.12,-0.5c0.76,0 1.45,0.16 2.08,0.48c0.64,0.32 1.14,0.76 1.5,1.32c0.37,0.56 0.56,1.19 0.56,1.9l0,1.28c0,0.21 -0.08,0.39 -0.24,0.54c-0.16,0.15 -0.36,0.22 -0.58,0.22l-5.84,0l0,0.9c0,0.68 0.21,1.23 0.64,1.64c0.44,0.41 1.06,0.62 1.88,0.62c0.81,0 1.43,-0.18 1.86,-0.54c0.42,-0.36 0.64,-0.85 0.64,-1.46c0.4,-0.03 0.73,0.05 1,0.24c0.28,0.17 0.42,0.43 0.42,0.78c0,0.43 -0.19,0.83 -0.56,1.2c-0.36,0.37 -0.84,0.67 -1.44,0.9c-0.6,0.23 -1.24,0.34 -1.92,0.34zm2.52,-5.98l0,-0.68c0,-0.67 -0.24,-1.21 -0.7,-1.62c-0.46,-0.43 -1.06,-0.64 -1.82,-0.64c-0.76,0 -1.38,0.21 -1.84,0.64c-0.46,0.41 -0.68,0.95 -0.68,1.62l0,0.68l5.04,0zm6.95,5.98c-1.14,0 -2.07,-0.31 -2.78,-0.92c-0.69,-0.61 -1.04,-1.42 -1.04,-2.42c0,-1.01 0.37,-1.83 1.1,-2.44c0.74,-0.63 1.7,-0.94 2.9,-0.94c1.28,0 2.34,0.45 3.16,1.36l0.08,-0.08c-0.14,-0.16 -0.31,-0.33 -0.5,-0.5l0,-0.84c0,-0.68 -0.21,-1.21 -0.64,-1.58c-0.42,-0.37 -1.03,-0.56 -1.82,-0.56c-1.4,0 -2.4,0.55 -3,1.66c-0.21,-0.11 -0.39,-0.25 -0.54,-0.42c-0.13,-0.19 -0.2,-0.37 -0.2,-0.56c0,-0.36 0.18,-0.7 0.54,-1.02c0.36,-0.33 0.84,-0.6 1.42,-0.8c0.6,-0.2 1.23,-0.3 1.88,-0.3c1.27,0 2.26,0.31 2.98,0.94c0.74,0.63 1.1,1.49 1.1,2.6l0,5.48c0,0.47 -0.13,0.81 -0.4,1.02c-0.26,0.21 -0.68,0.32 -1.26,0.32l0,-0.94c0.28,-0.29 0.44,-0.47 0.46,-0.52l-0.08,-0.08c-0.86,1.03 -1.98,1.54 -3.36,1.54zm0.3,-1.38c0.83,0 1.48,-0.17 1.94,-0.52c0.48,-0.35 0.72,-0.83 0.72,-1.44c0,-0.61 -0.23,-1.1 -0.7,-1.46c-0.46,-0.36 -1.1,-0.54 -1.92,-0.54c-0.76,0 -1.36,0.18 -1.8,0.54c-0.42,0.35 -0.64,0.83 -0.64,1.46c0,0.63 0.21,1.11 0.62,1.46c0.43,0.33 1.02,0.5 1.78,0.5zm11.39,-7.44c-0.75,0 -1.37,0.23 -1.86,0.68c-0.5,0.44 -0.74,0.98 -0.74,1.62l0,5.24c0,0.44 -0.15,0.77 -0.44,0.98c-0.28,0.2 -0.72,0.3 -1.3,0.3l0,-8.88c0,-0.99 0.56,-1.48 1.68,-1.48l0,1.22c-0.22,0.23 -0.36,0.43 -0.44,0.6l0.08,0.08c0.85,-1.27 1.92,-1.9 3.2,-1.9c0.48,0 0.84,0.12 1.1,0.36c0.25,0.23 0.38,0.51 0.38,0.84c0,0.24 -0.06,0.45 -0.18,0.64c-0.38,-0.2 -0.87,-0.3 -1.48,-0.3z" fill="white" id="svg_7"/>
  <path d="m273.6,142.29c-1.01,0 -1.91,-0.18 -2.7,-0.55c-0.79,-0.39 -1.41,-0.92 -1.85,-1.59c-0.44,-0.68 -0.65,-1.46 -0.65,-2.32l0,-4.03c0,-0.87 0.21,-1.63 0.65,-2.31c0.44,-0.67 1.05,-1.19 1.83,-1.56c0.78,-0.37 1.68,-0.56 2.68,-0.56c1.01,0 1.9,0.16 2.69,0.49c0.77,0.31 1.38,0.75 1.81,1.31c0.45,0.56 0.67,1.21 0.67,1.94c0,0.36 -0.12,0.65 -0.36,0.85c-0.24,0.2 -0.56,0.31 -0.95,0.31c-0.09,0 -0.22,-0.02 -0.38,-0.04c0.02,-0.14 0.03,-0.37 0.03,-0.68c0,-0.52 -0.15,-0.98 -0.45,-1.39c-0.29,-0.41 -0.7,-0.73 -1.24,-0.95c-0.53,-0.23 -1.13,-0.35 -1.82,-0.35c-0.67,0 -1.27,0.13 -1.8,0.38c-0.52,0.24 -0.94,0.59 -1.24,1.05c-0.29,0.44 -0.43,0.94 -0.43,1.51l0,4.03c0,0.58 0.14,1.09 0.43,1.55c0.3,0.44 0.72,0.79 1.24,1.04c0.54,0.25 1.16,0.38 1.84,0.38c0.7,0 1.31,-0.11 1.85,-0.34c0.54,-0.23 0.96,-0.54 1.26,-0.94c0.3,-0.41 0.45,-0.87 0.45,-1.4c0,-0.19 -0.01,-0.42 -0.03,-0.69c0.17,-0.02 0.29,-0.03 0.36,-0.03c0.39,0 0.71,0.11 0.95,0.34c0.25,0.23 0.38,0.53 0.38,0.92c0,0.71 -0.22,1.34 -0.67,1.89c-0.44,0.55 -1.06,0.98 -1.85,1.29c-0.78,0.3 -1.68,0.45 -2.7,0.45zm9.81,0c-1.03,0 -1.86,-0.27 -2.5,-0.82c-0.62,-0.56 -0.93,-1.28 -0.93,-2.18c0,-0.91 0.33,-1.65 0.98,-2.2c0.67,-0.56 1.54,-0.84 2.61,-0.84c1.16,0 2.11,0.4 2.85,1.22l0.07,-0.07c-0.13,-0.15 -0.28,-0.3 -0.45,-0.45l0,-0.76c0,-0.61 -0.19,-1.08 -0.58,-1.42c-0.38,-0.34 -0.92,-0.5 -1.63,-0.5c-1.26,0 -2.16,0.49 -2.7,1.49c-0.19,-0.1 -0.36,-0.22 -0.49,-0.38c-0.12,-0.17 -0.18,-0.33 -0.18,-0.5c0,-0.33 0.16,-0.63 0.49,-0.92c0.32,-0.3 0.75,-0.54 1.28,-0.72c0.53,-0.18 1.1,-0.27 1.69,-0.27c1.14,0 2.03,0.28 2.68,0.85c0.66,0.56 0.99,1.34 0.99,2.34l0,4.93c0,0.42 -0.12,0.72 -0.36,0.92c-0.24,0.19 -0.62,0.28 -1.13,0.28l0,-0.84c0.25,-0.27 0.39,-0.42 0.41,-0.47l-0.07,-0.07c-0.78,0.92 -1.79,1.38 -3.03,1.38zm0.27,-1.24c0.75,0 1.33,-0.15 1.75,-0.47c0.43,-0.31 0.65,-0.74 0.65,-1.29c0,-0.55 -0.21,-0.99 -0.63,-1.32c-0.42,-0.32 -1,-0.48 -1.73,-0.48c-0.68,0 -1.22,0.16 -1.62,0.48c-0.39,0.32 -0.58,0.75 -0.58,1.32c0,0.56 0.19,1 0.56,1.31c0.38,0.3 0.92,0.45 1.6,0.45zm10.25,-6.69c-0.67,0 -1.23,0.2 -1.68,0.61c-0.44,0.39 -0.66,0.88 -0.66,1.46l0,4.71c0,0.4 -0.13,0.69 -0.4,0.88c-0.25,0.18 -0.64,0.27 -1.17,0.27l0,-7.99c0,-0.89 0.51,-1.33 1.51,-1.33l0,1.1c-0.19,0.2 -0.32,0.38 -0.39,0.54l0.07,0.07c0.77,-1.14 1.73,-1.71 2.88,-1.71c0.43,0 0.76,0.11 0.99,0.32c0.23,0.21 0.34,0.46 0.34,0.76c0,0.22 -0.05,0.41 -0.16,0.58c-0.34,-0.18 -0.78,-0.27 -1.33,-0.27zm6.51,7.93c-0.85,0 -1.49,-0.24 -1.91,-0.72c-0.42,-0.49 -0.63,-1.13 -0.63,-1.92l0,-5.26l-1.67,0c0,-0.41 0.09,-0.72 0.27,-0.93c0.18,-0.22 0.43,-0.33 0.74,-0.33l0.68,0l0,-1.71c0,-0.39 0.13,-0.68 0.38,-0.86c0.26,-0.19 0.65,-0.29 1.17,-0.29l0,2.86l2.39,0c0,0.84 -0.37,1.26 -1.13,1.26l-1.24,0l0,5.2c0,0.48 0.08,0.83 0.25,1.03c0.18,0.19 0.5,0.29 0.95,0.29c0.42,0 0.82,-0.11 1.19,-0.33c0.16,0.16 0.24,0.37 0.24,0.63c0,0.29 -0.15,0.54 -0.45,0.76c-0.3,0.22 -0.71,0.32 -1.23,0.32z" fill="#503CEB" id="svg_8"/>
  <path d="m312.36,135.57l-1.55,0l0,-0.26c0,-0.61 -0.24,-1.2 -0.67,-1.63c-0.44,-0.44 -1.03,-0.68 -1.64,-0.68c-0.61,0 -1.2,0.24 -1.64,0.68c-0.43,0.43 -0.67,1.02 -0.67,1.63l0,0.26l-1.55,0c-0.17,0 -0.33,0.07 -0.45,0.19c-0.12,0.12 -0.19,0.28 -0.19,0.45l0,4.38c0,0.37 0.15,0.73 0.41,1c0.27,0.26 0.63,0.41 1,0.41l6.18,0c0.37,0 0.73,-0.15 1,-0.41c0.26,-0.27 0.41,-0.63 0.41,-1l0,-4.38c0,-0.17 -0.07,-0.33 -0.19,-0.45c-0.12,-0.12 -0.28,-0.19 -0.45,-0.19zm-5.4,-0.26c0,-0.4 0.16,-0.8 0.45,-1.09c0.29,-0.29 0.68,-0.45 1.09,-0.45c0.41,0 0.8,0.16 1.09,0.45c0.29,0.29 0.45,0.69 0.45,1.09l0,0.26l-3.08,0l0,-0.26zm5.27,5.28c0,0.17 -0.07,0.33 -0.19,0.45c-0.12,0.12 -0.28,0.19 -0.45,0.19l-6.18,0c-0.17,0 -0.33,-0.07 -0.45,-0.19c-0.12,-0.12 -0.19,-0.28 -0.19,-0.45l0,-4.25l1.42,0l0,1.16c0,0.1 0.04,0.2 0.11,0.27c0.07,0.07 0.17,0.12 0.27,0.12c0.1,0 0.2,-0.05 0.27,-0.12c0.08,-0.07 0.12,-0.17 0.12,-0.27l0,-1.16l3.08,0l0,1.16c0,0.1 0.04,0.2 0.12,0.27c0.07,0.07 0.17,0.12 0.27,0.12c0.1,0 0.2,-0.05 0.27,-0.12c0.07,-0.07 0.11,-0.17 0.11,-0.27l0,-1.16l1.42,0l0,4.25z" fill="white" id="svg_9"/>
  <path d="m310.81,135.57l-1,0l0,1l1,0l0,-1zm-2.31,-2.57l0,-1l0,1zm-2.31,2.31l-1,0l1,0zm0,0.26l0,1l1,0l0,-1l-1,0zm-2.19,0.64l-1,0l1,0zm0,4.38l-1,0l1,0zm6.04,-5.28l1,0l-1,0zm0,0.26l0,1l1,0l0,-1l-1,0zm-3.08,0l-1,0l0,1l1,0l0,-1zm-2.19,0.77l0,-1l-1,0l0,1l1,0zm1.42,0l1,0l0,-1l-1,0l0,1zm0,1.16l-1,0l1,0zm0.77,-1.16l0,-1l-1,0l0,1l1,0zm3.08,0l1,0l0,-1l-1,0l0,1zm0.77,0l0,-1l-1,0l0,1l1,0zm1.42,0l1,0l0,-1l-1,0l0,1zm0.13,-1.77l-1.55,0l0,2l1.55,0l0,-2zm-0.55,1l0,-0.26l-2,0l0,0.26l2,0zm0,-0.26c0,-0.87 -0.35,-1.72 -0.97,-2.34l-1.41,1.41c0.25,0.25 0.38,0.59 0.38,0.93l2,0zm-0.97,-2.34c-0.62,-0.62 -1.46,-0.97 -2.34,-0.97l0,2c0.35,0 0.68,0.14 0.93,0.38l1.41,-1.41zm-2.34,-0.97c-0.88,0 -1.72,0.35 -2.34,0.97l1.41,1.41c0.25,-0.24 0.58,-0.38 0.93,-0.38l0,-2zm-2.34,0.97c-0.62,0.62 -0.97,1.47 -0.97,2.34l2,0c0,-0.34 0.13,-0.68 0.38,-0.93l-1.41,-1.41zm-0.97,2.34l0,0.26l2,0l0,-0.26l-2,0zm1,-0.74l-1.55,0l0,2l1.55,0l0,-2zm-1.55,0c-0.43,0 -0.85,0.18 -1.16,0.48l1.41,1.42c-0.06,0.06 -0.15,0.1 -0.25,0.1l0,-2zm-1.16,0.48c-0.31,0.31 -0.48,0.73 -0.48,1.16l2,0c0,0.1 -0.04,0.19 -0.11,0.26l-1.41,-1.42zm-0.48,1.16l0,4.38l2,0l0,-4.38l-2,0zm0,4.38c0,0.64 0.25,1.25 0.71,1.7l1.41,-1.41c-0.08,-0.08 -0.12,-0.18 -0.12,-0.29l-2,0zm0.71,1.7c0.45,0.46 1.06,0.71 1.7,0.71l0,-2c-0.11,0 -0.21,-0.04 -0.29,-0.12l-1.41,1.41zm1.7,0.71l6.18,0l0,-2l-6.18,0l0,2zm6.18,0c0.64,0 1.25,-0.25 1.7,-0.71l-1.41,-1.41c-0.08,0.08 -0.18,0.12 -0.29,0.12l0,2zm1.7,-0.71c0.46,-0.45 0.71,-1.06 0.71,-1.7l-2,0c0,0.11 -0.04,0.21 -0.12,0.29l1.41,1.41zm0.71,-1.7l0,-4.38l-2,0l0,4.38l2,0zm0,-4.38c0,-0.43 -0.17,-0.85 -0.48,-1.16l-1.41,1.42c-0.07,-0.07 -0.11,-0.16 -0.11,-0.26l2,0zm-0.48,-1.16c-0.31,-0.3 -0.73,-0.48 -1.16,-0.48l0,2c-0.1,0 -0.19,-0.04 -0.25,-0.1l1.41,-1.42zm-5.56,0.26c0,-0.14 0.05,-0.28 0.16,-0.38l-1.42,-1.41c-0.47,0.47 -0.74,1.12 -0.74,1.79l2,0zm0.16,-0.38c0.1,-0.1 0.24,-0.16 0.38,-0.16l0,-2c-0.67,0 -1.32,0.27 -1.8,0.75l1.42,1.41zm0.38,-0.16c0.14,0 0.28,0.06 0.38,0.16l1.42,-1.41c-0.48,-0.48 -1.13,-0.75 -1.8,-0.75l0,2zm0.38,0.16c0.11,0.1 0.16,0.24 0.16,0.38l2,0c0,-0.67 -0.27,-1.32 -0.74,-1.79l-1.42,1.41zm0.16,0.38l0,0.26l2,0l0,-0.26l-2,0zm1,-0.74l-3.08,0l0,2l3.08,0l0,-2zm-2.08,1l0,-0.26l-2,0l0,0.26l2,0zm3.27,5.02c0,-0.1 0.04,-0.19 0.1,-0.26l1.42,1.42c0.31,-0.31 0.48,-0.73 0.48,-1.16l-2,0zm0.1,-0.26c0.07,-0.06 0.16,-0.1 0.26,-0.1l0,2c0.43,0 0.85,-0.17 1.16,-0.48l-1.42,-1.42zm0.26,-0.1l-6.18,0l0,2l6.18,0l0,-2zm-6.18,0c0.1,0 0.19,0.04 0.26,0.1l-1.42,1.42c0.31,0.31 0.73,0.48 1.16,0.48l0,-2zm0.26,0.1c0.06,0.07 0.1,0.16 0.1,0.26l-2,0c0,0.43 0.17,0.85 0.48,1.16l1.42,-1.42zm0.1,0.26l0,-4.25l-2,0l0,4.25l2,0zm-1,-3.25l1.42,0l0,-2l-1.42,0l0,2zm0.42,-1l0,1.16l2,0l0,-1.16l-2,0zm0,1.16c0,0.37 0.14,0.72 0.4,0.98l1.42,-1.41c0.11,0.11 0.18,0.27 0.18,0.43l-2,0zm0.4,0.98c0.26,0.26 0.61,0.41 0.98,0.41l0,-2c0.16,0 0.32,0.06 0.44,0.18l-1.42,1.41zm0.98,0.41c0.37,0 0.72,-0.15 0.98,-0.41l-1.41,-1.41c0.11,-0.12 0.27,-0.18 0.43,-0.18l0,2zm0.98,-0.41c0.26,-0.26 0.41,-0.61 0.41,-0.98l-2,0c0,-0.16 0.06,-0.32 0.18,-0.43l1.41,1.41zm0.41,-0.98l0,-1.16l-2,0l0,1.16l2,0zm-1,-0.16l3.08,0l0,-2l-3.08,0l0,2zm2.08,-1l0,1.16l2,0l0,-1.16l-2,0zm0,1.16c0,0.37 0.15,0.72 0.41,0.98l1.41,-1.41c0.12,0.11 0.18,0.27 0.18,0.43l-2,0zm0.41,0.98c0.26,0.26 0.61,0.41 0.98,0.41l0,-2c0.16,0 0.32,0.06 0.43,0.18l-1.41,1.41zm0.98,0.41c0.37,0 0.72,-0.15 0.98,-0.41l-1.42,-1.41c0.12,-0.12 0.28,-0.18 0.44,-0.18l0,2zm0.98,-0.41c0.26,-0.26 0.4,-0.61 0.4,-0.98l-2,0c0,-0.16 0.07,-0.32 0.18,-0.43l1.42,1.41zm0.4,-0.98l0,-1.16l-2,0l0,1.16l2,0zm-1,-0.16l1.42,0l0,-2l-1.42,0l0,2zm0.42,-1l0,4.25l2,0l0,-4.25l-2,0z" fill="#503CEB" id="svg_10" mask="url(#path-6-inside-1_0_1)"/>
 </g>
</svg>